<?xml version="1.0" encoding="UTF-8" standalone="no"?>
<!-- Created with Inkscape (http://www.inkscape.org/) -->

<svg
   xmlns:dc="http://purl.org/dc/elements/1.1/"
   xmlns:cc="http://creativecommons.org/ns#"
   xmlns:rdf="http://www.w3.org/1999/02/22-rdf-syntax-ns#"
   xmlns:svg="http://www.w3.org/2000/svg"
   xmlns="http://www.w3.org/2000/svg"
   xmlns:sodipodi="http://sodipodi.sourceforge.net/DTD/sodipodi-0.dtd"
   xmlns:inkscape="http://www.inkscape.org/namespaces/inkscape"
   width="4.4285865mm"
   height="8.2484589mm"
   viewBox="0 0 4.4285865 8.2484589"
   version="1.1"
   id="svg3740"
   inkscape:version="0.92.4 (5da689c313, 2019-01-14)"
   sodipodi:docname="s_thing.svg">
  <defs
     id="defs3734" />
  <sodipodi:namedview
     id="base"
     pagecolor="#ffffff"
     bordercolor="#666666"
     borderopacity="1.0"
     inkscape:pageopacity="0.0"
     inkscape:pageshadow="2"
     inkscape:zoom="16"
     inkscape:cx="4.2762909"
     inkscape:cy="22.517834"
     inkscape:document-units="mm"
     inkscape:current-layer="layer1"
     showgrid="false"
     inkscape:window-width="1920"
     inkscape:window-height="1017"
     inkscape:window-x="1912"
     inkscape:window-y="-8"
     inkscape:window-maximized="1" />
  <metadata
     id="metadata3737">
    <rdf:RDF>
      <cc:Work
         rdf:about="">
        <dc:format>image/svg+xml</dc:format>
        <dc:type
           rdf:resource="http://purl.org/dc/dcmitype/StillImage" />
        <dc:title></dc:title>
      </cc:Work>
    </rdf:RDF>
  </metadata>
  <g
     inkscape:label="Layer 1"
     inkscape:groupmode="layer"
     id="layer1"
     transform="translate(-72.644185,-77.259682)">
    <text
       xml:space="preserve"
       style="font-style:normal;font-variant:normal;font-weight:normal;font-stretch:normal;font-size:10.58333302px;line-height:1.25;font-family:Bravura;-inkscape-font-specification:Bravura;letter-spacing:0px;word-spacing:0px;fill:#000000;fill-opacity:1;stroke:none;stroke-width:0.26458332"
       x="70.559151"
       y="84.253456"
       id="text3744"><tspan
         sodipodi:role="line"
         id="tspan3742"
         x="70.559151"
         y="90.868042"
         style="stroke-width:0.26458332"></tspan></text>
    <path
       style="font-style:normal;font-variant:normal;font-weight:normal;font-stretch:normal;font-size:10.58333302px;line-height:1.25;font-family:Bravura;-inkscape-font-specification:Bravura;letter-spacing:0px;word-spacing:0px;fill:#000000;fill-opacity:1;stroke:none;stroke-width:0.99999994"
       d="m 289.89258,292.00586 c -0.097,-0.003 -0.18878,0.004 -0.26758,0.0176 -0.5121,0.0903 -0.88868,0.48092 -0.90039,1.33594 0.0113,1.2165 0.0593,5.63579 -0.3418,7.04687 -0.43351,1.45742 -1.32936,3.5242 -3.12304,5.09961 -0.85505,0.73809 -1.84775,1.31699 -2.75586,1.74805 v 0.006 c -1.09493,0.4334 -2.28989,1.04769 -3.33008,1.93945 0,0 -4.85728,3.7811 -4.60352,11.90039 0.15281,0.86663 0.3272,1.85286 1.0918,2.04297 0.10545,0.0219 0.20763,0.0341 0.30469,0.0371 0.097,0.003 0.18877,-0.004 0.26758,-0.0176 0.5121,-0.0903 0.88867,-0.48092 0.90039,-1.33594 -0.0113,-1.2165 -0.0593,-5.63579 0.34179,-7.04687 0.43351,-1.45742 1.32937,-3.5242 3.12305,-5.09961 0.85505,-0.73809 1.84775,-1.317 2.75586,-1.74805 v -0.006 c 1.09492,-0.4334 2.28989,-1.04769 3.33008,-1.93945 0,0 4.85727,-3.78111 4.60351,-11.90039 -0.1528,-0.86663 -0.3272,-1.85286 -1.09179,-2.04297 -0.10545,-0.0219 -0.20763,-0.0341 -0.30469,-0.0371 z"
       transform="scale(0.26458333)"
       id="path3801"
       inkscape:connector-curvature="0" />
  </g>
</svg>
